{
  "accessors": [
    {
      "bufferView": 2,
      "componentType": 5126,
      "count": 1358,
      "max": [
        39.423133850097656,
        220.37684631347656,
        32.15452194213867
      ],
      "min": [
        -35.69546127319336,
        144.8585662841797,
        -31.76734733581543
      ],
      "type": "VEC3"
    },
    {
      "bufferView": 2,
      "byteOffset": 16296,
      "componentType": 5126,
      "count": 1358,
      "max": [
        0.9953716397285461,
        0.9984743595123291,
        0.9992864727973938
      ],
      "min": [
        -0.9998133182525635,
        -0.9999892711639404,
        -0.9989359378814697
      ],
      "type": "VEC3"
    },
    {
      "bufferView": 3,
      "componentType": 5126,
      "count": 1358,
      "max": [
        0.9999707937240601,
        0.9864727854728699,
        0.9980440139770508,
        1.0
      ],
      "min": [
        -0.9998272657394409,
        -0.9993233680725098,
        -0.999995231628418,
        1.0
      ],
      "type": "VEC4"
    },
    {
      "bufferView": 1,
      "componentType": 5126,
      "count": 1358,
      "max": [
        0.998046875,
        0.8850265741348267
      ],
      "min": [
        0.001953125,
        0.001953125
      ],
      "type": "VEC2"
    },
    {
      "bufferView": 0,
      "componentType": 5125,
      "count": 7170,
      "type": "SCALAR"
    },
    {
      "bufferView": 2,
      "byteOffset": 32592,
      "componentType": 5126,
      "count": 29808,
      "max": [
        617.2067260742188,
        157.69491577148438,
        198.9131622314453
      ],
      "min": [
        234.76055908203125,
        -158.08314514160156,
        -197.65818786621094
      ],
      "type": "VEC3"
    },
    {
      "bufferView": 2,
      "byteOffset": 390288,
      "componentType": 5126,
      "count": 29808,
      "max": [
        0.998994767665863,
        0.9999932050704956,
        0.9999284148216248
      ],
      "min": [
        -0.9997910261154175,
        -0.9999892711639404,
        -0.9999707341194153
      ],
      "type": "VEC3"
    },
    {
      "bufferView": 3,
      "byteOffset": 21728,
      "componentType": 5126,
      "count": 29808,
      "max": [
        0.9999978542327881,
        0.9747080206871033,
        0.9999662637710571,
        1.0
      ],
      "min": [
        -0.9906272292137146,
        -0.9976131916046143,
        -0.9999914765357971,
        1.0
      ],
      "type": "VEC4"
    },
    {
      "bufferView": 1,
      "byteOffset": 10864,
      "componentType": 5126,
      "count": 29808,
      "max": [
        0.9975225329399109,
        0.998046875
      ],
      "min": [
        0.001953125,
        0.001953125
      ],
      "type": "VEC2"
    },
    {
      "bufferView": 0,
      "byteOffset": 28680,
      "componentType": 5125,
      "count": 29808,
      "type": "SCALAR"
    }
  ],
  "asset": {
    "extras": {
      "author": "Tiago Lopes (https://sketchfab.com/drobluda)",
      "license": "CC-BY-4.0 (http://creativecommons.org/licenses/by/4.0/)",
      "source": "https://sketchfab.com/3d-models/pumpkin-bf5e44b703ea40579f99e3cc036d603d",
      "title": "Pumpkin"
    },
    "generator": "Sketchfab-12.68.0",
    "version": "2.0"
  },
  "bufferViews": [
    {
      "buffer": 0,
      "byteLength": 147912,
      "name": "floatBufferViews",
      "target": 34963
    },
    {
      "buffer": 0,
      "byteLength": 249328,
      "byteOffset": 147912,
      "byteStride": 8,
      "name": "floatBufferViews",
      "target": 34962
    },
    {
      "buffer": 0,
      "byteLength": 747984,
      "byteOffset": 397240,
      "byteStride": 12,
      "name": "floatBufferViews",
      "target": 34962
    },
    {
      "buffer": 0,
      "byteLength": 498656,
      "byteOffset": 1145224,
      "byteStride": 16,
      "name": "floatBufferViews",
      "target": 34962
    }
  ],
  "buffers": [
    {
      "byteLength": 1643880,
      "uri": "scene.bin"
    }
  ],
  "images": [
    {
      "uri": "textures/lambert1_baseColor.png"
    },
    {
      "uri": "textures/lambert1_metallicRoughness.png"
    },
    {
      "uri": "textures/lambert1_normal.png"
    },
    {
      "uri": "textures/lambert2_baseColor.png"
    },
    {
      "uri": "textures/lambert2_metallicRoughness.png"
    },
    {
      "uri": "textures/lambert2_normal.png"
    }
  ],
  "materials": [
    {
      "doubleSided": true,
      "name": "lambert1",
      "normalTexture": {
        "index": 2
      },
      "occlusionTexture": {
        "index": 1
      },
      "pbrMetallicRoughness": {
        "baseColorTexture": {
          "index": 0
        },
        "metallicRoughnessTexture": {
          "index": 1
        }
      }
    },
    {
      "doubleSided": true,
      "name": "lambert2",
      "normalTexture": {
        "index": 5
      },
      "occlusionTexture": {
        "index": 4
      },
      "pbrMetallicRoughness": {
        "baseColorTexture": {
          "index": 3
        },
        "metallicRoughnessTexture": {
          "index": 4
        },
        "roughnessFactor": 0.5428454602387076
      }
    }
  ],
  "meshes": [
    {
      "name": "pumpkin_cima_low_lambert1_0",
      "primitives": [
        {
          "attributes": {
            "NORMAL": 1,
            "POSITION": 0,
            "TANGENT": 2,
            "TEXCOORD_0": 3
          },
          "indices": 4,
          "material": 0,
          "mode": 4
        }
      ]
    },
    {
      "name": "pumpkin_low_lambert2_0",
      "primitives": [
        {
          "attributes": {
            "NORMAL": 6,
            "POSITION": 5,
            "TANGENT": 7,
            "TEXCOORD_0": 8
          },
          "indices": 9,
          "material": 1,
          "mode": 4
        }
      ]
    }
  ],
  "nodes": [
    {
      "children": [
        1
      ],
      "matrix": [
        1.0,
        0.0,
        0.0,
        0.0,
        0.0,
        2.220446049250313e-16,
        -1.0,
        0.0,
        0.0,
        1.0,
        2.220446049250313e-16,
        0.0,
        0.0,
        0.0,
        0.0,
        1.0
      ],
      "name": "Sketchfab_model"
    },
    {
      "children": [
        2
      ],
      "matrix": [
        0.009999999776482582,
        0.0,
        0.0,
        0.0,
        0.0,
        0.0,
        0.009999999776482582,
        0.0,
        0.0,
        -0.009999999776482582,
        0.0,
        0.0,
        0.0,
        0.0,
        0.0,
        1.0
      ],
      "name": "e6a65e948af84554979e91658a70ed03.fbx"
    },
    {
      "children": [
        3,
        5
      ],
      "name": "RootNode"
    },
    {
      "children": [
        4
      ],
      "name": "pumpkin_cima_low"
    },
    {
      "mesh": 0,
      "name": "pumpkin_cima_low_lambert1_0"
    },
    {
      "children": [
        6
      ],
      "matrix": [
        1.0,
        0.0,
        0.0,
        0.0,
        0.0,
        1.0,
        0.0,
        0.0,
        0.0,
        0.0,
        1.0,
        0.0,
        -425.9166259765625,
        0.0,
        0.0,
        1.0
      ],
      "name": "pumpkin_low"
    },
    {
      "mesh": 1,
      "name": "pumpkin_low_lambert2_0"
    }
  ],
  "samplers": [
    {
      "magFilter": 9729,
      "minFilter": 9987,
      "wrapS": 10497,
      "wrapT": 10497
    }
  ],
  "scene": 0,
  "scenes": [
    {
      "name": "Sketchfab_Scene",
      "nodes": [
        0
      ]
    }
  ],
  "textures": [
    {
      "sampler": 0,
      "source": 0
    },
    {
      "sampler": 0,
      "source": 1
    },
    {
      "sampler": 0,
      "source": 2
    },
    {
      "sampler": 0,
      "source": 3
    },
    {
      "sampler": 0,
      "source": 4
    },
    {
      "sampler": 0,
      "source": 5
    }
  ]
}
